<?xml version="1.0" encoding="utf-8"?>
<!-- Generator: Adobe Illustrator 23.0.3, SVG Export Plug-In . SVG Version: 6.00 Build 0)  -->
<svg version="1.1" id="svg" xmlns="http://www.w3.org/2000/svg" xmlns:xlink="http://www.w3.org/1999/xlink" x="0px" y="0px"
	 viewBox="0 0 13 13" style="enable-background:new 0 0 13 13;" xml:space="preserve">
<style type="text/css">
	.st0{fill-rule:evenodd;clip-rule:evenodd;fill:#6C8484;}
	.st1{fill-rule:evenodd;clip-rule:evenodd;fill:#E4E1D4;}
	.st2{fill-rule:evenodd;clip-rule:evenodd;fill:#849494;}
	.st3{fill-rule:evenodd;clip-rule:evenodd;fill:#042C34;}
	.st4{fill-rule:evenodd;clip-rule:evenodd;fill:#5C7474;}
</style>
<g id="svgg">
	<path id="path0" class="st0" d="M12.4,1.2c-0.1,0.1-0.1-0.4-0.1,4.7c0,4.5,0,4.5,0,4.6c-0.1,0.1-0.1,0.2-0.3,0.2
		c-0.1,0-1.8,0-5.5,0c-5.8,0-5.5,0-5.6,0.1c-0.1,0.1-0.1,0.1,0.1,0.2c0.1,0,11.5,0,11.5,0c0,0,0,0,0.1-0.1c0,0,0-9.5,0-9.6
		C12.5,1.1,12.5,1.1,12.4,1.2 M3.9,2.8C3.6,2.8,3.4,3,3.4,3.4c0,0.3,0,4.7,0,4.8c0.1,0.3,0.2,0.4,0.4,0.5c0.1,0,5.2,0,5.4,0
		c0.2,0,0.3-0.1,0.4-0.3c0.2-0.4,0.2-0.6,0-0.8C9.3,7.4,9,7.4,8.7,7.7C8.6,7.8,8.6,7.8,8.5,7.8l-0.1,0H6.5c-2.1,0-2,0-2.1-0.1
		c-0.2-0.1-0.2-0.1-0.2-2c0-1.9,0-1.8,0.1-2c0.1-0.1,0.1-0.1,2.1-0.1c2.1,0,2,0,2.2,0.2c0.4,0.3,0.6,0.4,0.8,0.1
		c0.2-0.2,0.2-0.4,0-0.8C9.5,2.9,9.3,2.8,9.1,2.8C9,2.7,4.1,2.7,3.9,2.8 M9.1,2.8C9.4,2.9,9.5,3,9.6,3.3C9.7,3.7,9.5,4,9.2,4
		C9.1,4,9,4,8.7,3.8C8.6,3.6,8.5,3.6,8.3,3.6c-0.4,0-3.7,0-3.8,0c-0.1,0-0.2,0.2-0.3,0.3c0,0.1,0,3.5,0,3.6c0,0.2,0.1,0.3,0.3,0.3
		c0.1,0,3.8,0,3.9,0c0.1,0,0.2,0,0.3-0.1C9,7.5,9.2,7.5,9.4,7.6c0.2,0.1,0.3,0.3,0.2,0.6C9.5,8.6,9.4,8.7,9,8.7c-0.2,0-4.8,0-5,0
		c-0.3,0-0.4-0.1-0.5-0.4l0-0.1V5.8c0-2.7,0-2.5,0.1-2.7C3.6,2.9,3.8,2.8,4,2.8C4.1,2.8,9,2.8,9.1,2.8 M5.6,5.3
		C5.6,5.3,5.6,5.3,5.6,5.3C5.1,5.5,5.1,6,5.5,6.2c0.1,0,3.3,0,3.6,0c0.6,0,0.7-0.7,0.2-0.8C9.2,5.3,5.7,5.3,5.6,5.3 M9.2,5.4
		c0.1,0,0.2,0,0.3,0.1C9.6,5.6,9.6,6,9.3,6.1c-0.1,0-3.6,0-3.7,0C5.1,6,5.1,5.5,5.6,5.4C5.7,5.4,9,5.4,9.2,5.4 M4.3,12.4
		c-0.1,0-0.1,0.1,0,0.1c0.2,0,4.3,0,4.4,0c0,0,0-0.1,0-0.1l0,0l-2.2,0C4.7,12.4,4.4,12.4,4.3,12.4"/>
	<path id="path1" class="st1" d="M4,2.9C4,2.9,4,2.9,4,2.9C3.7,3,3.6,3.1,3.6,3.4c0,0.3,0,4.8,0,4.9c0,0.2,0.1,0.3,0.3,0.3
		c0.1,0,5.2,0,5.3,0c0.2,0,0.3-0.1,0.3-0.4c0.2-0.5-0.2-0.7-0.7-0.4C8.5,8.1,8.8,8,6.5,8C4.5,8,4.5,8,4.4,8C4.2,7.9,4.1,7.7,4.1,7.5
		c0-0.3,0-3.5,0-3.6c0.1-0.2,0.2-0.3,0.3-0.4l0.1,0h2h2l0.1,0c0,0,0.1,0.1,0.2,0.1C9,3.9,9.2,3.9,9.3,3.9c0.2-0.1,0.2-0.3,0.2-0.5
		C9.4,3.1,9.3,3,9.1,2.9C9.1,2.9,4.1,2.9,4,2.9 M5.7,5.5C5.3,5.5,5.2,5.8,5.6,6l0.1,0h1.8h1.8l0.1,0c0.2-0.1,0.2-0.4,0-0.5
		C9.2,5.5,5.9,5.5,5.7,5.5"/>
	<path id="path2" class="st2" d="M4,2.8c-0.2,0-0.4,0.1-0.5,0.3c-0.1,0.2-0.1,0-0.1,2.7v2.4l0,0.1C3.6,8.6,3.7,8.7,4,8.7
		c0.2,0,4.8,0,5,0c0.3,0,0.4-0.1,0.6-0.5c0.2-0.6-0.3-0.9-0.9-0.5C8.6,7.8,8.6,7.9,8.5,7.9c-0.1,0-3.8,0-3.9,0
		c-0.2,0-0.3-0.1-0.3-0.3c0-0.1,0-3.5,0-3.6c0-0.2,0.2-0.3,0.3-0.3c0.1,0,3.4,0,3.8,0c0.2,0,0.3,0,0.4,0.2C9,4,9.1,4,9.2,4
		c0.3,0,0.5-0.3,0.4-0.7C9.5,3,9.4,2.9,9.1,2.8C9,2.8,4.1,2.8,4,2.8 M9.1,2.9C9.3,3,9.4,3.1,9.5,3.3c0.1,0.3,0,0.4-0.2,0.5
		C9.2,3.9,9,3.9,8.8,3.6C8.7,3.6,8.6,3.5,8.6,3.5l-0.1,0h-2h-2l-0.1,0C4.3,3.6,4.2,3.7,4.1,3.9c0,0.1,0,3.2,0,3.6
		c0,0.3,0.1,0.4,0.3,0.5C4.5,8,4.5,8,6.5,8c2.2,0,2,0,2.3-0.2c0.4-0.4,0.8-0.2,0.7,0.4C9.4,8.5,9.3,8.5,9.1,8.6c-0.1,0-5.2,0-5.3,0
		c-0.2,0-0.2-0.1-0.3-0.3c0-0.1,0-4.6,0-4.9c0-0.3,0.1-0.4,0.4-0.4c0,0,0.1,0,0.1,0C4.1,2.9,9.1,2.9,9.1,2.9 M5.6,5.4
		C5.1,5.5,5.1,6,5.6,6.1c0.1,0,3.6,0,3.7,0C9.6,6,9.6,5.6,9.4,5.5c-0.1,0-0.1-0.1-0.3-0.1C9,5.4,5.7,5.4,5.6,5.4 M9.3,5.5
		c0.2,0.1,0.2,0.4,0,0.5L9.2,6H7.4H5.6L5.6,6C5.2,5.8,5.3,5.5,5.7,5.5C5.9,5.5,9.2,5.5,9.3,5.5"/>
	<path id="path3" class="st3" d="M0,0L0,0l0,5.8v5.8l0,0c0.1,0.1,0.1,0.1,2,0.1c0.9,0,1.7,0,1.7,0c0,0,0,0.1-0.1,0.1
		c0,0-0.1,0.1-0.1,0.1c-0.1,0.1-0.1,0.1-0.2,0.2c-0.1,0.1-0.2,0.3-0.2,0.6V13h0c0,0,0,0,0,0c0,0,0,0,0,0c0,0,0.2,0,3.3,0
		c3.1,0,3.3,0,3.3,0c0,0,0,0,0,0c0,0,0,0,0,0h0l0-0.2c0-0.3,0-0.4-0.1-0.5c-0.1-0.1-0.1-0.1-0.1-0.1c0,0-0.1-0.1-0.1-0.1
		c-0.1-0.1-0.1-0.1-0.2-0.2c0,0-0.1,0-0.1-0.1c0-0.1-0.1-0.1,1.7-0.1c1.9,0,1.8,0,2-0.1l0,0V5.8C13,0.2,13,0,13,0c0,0-0.5,0-6.5,0
		L0,0L0,0 M12.6,0.5c0.1,0,0.1,0.1,0.1,0.1c0,0.1,0,10.2,0,10.3c0,0.1-0.1,0.1-0.2,0.1c-0.1,0-12.2,0-12.2,0c-0.1,0-0.1-0.1-0.1-0.2
		c0-0.1,0-10.1,0-10.2c0-0.1,0.1-0.2,0.2-0.2C0.7,0.5,12.6,0.5,12.6,0.5 M0.9,1C0.8,1,0.8,1.1,0.8,1.1l0,0.1v4.6v4.6l0,0
		c0,0,0,0.1,0.1,0.1c0,0,0.9,0,5.6,0h5.5l0.1,0c0.2-0.1,0.1,0.4,0.1-4.8c0-5.1,0-4.6-0.1-4.7C12,1,1,1,0.9,1 M9.2,2.7
		c0.4,0.1,0.7,0.7,0.6,1.1C9.6,4.2,9.1,4.3,8.7,4C8.5,3.8,8.5,3.8,8.4,3.7c-0.1,0-3.7,0-3.8,0c-0.1,0-0.1,0-0.1,0.1
		c-0.1,0.1-0.1,0-0.1,2v1.8l0,0.1c0,0,0,0.1,0.1,0.1l0.1,0l1.9,0c2.2,0,2,0,2.2-0.2c0.4-0.3,0.7-0.3,1,0c0.2,0.2,0.2,0.5,0,0.8
		C9.6,8.7,9.5,8.7,9.2,8.8l-0.1,0l-2.6,0c-2.8,0-2.7,0-2.9-0.1C3.4,8.7,3.3,8.4,3.2,8.1c0-0.2,0-4.5,0-4.6c0-0.4,0.3-0.7,0.6-0.8
		C4,2.6,9.1,2.6,9.2,2.7 M9.3,5.2c0.5,0.1,0.6,0.6,0.3,0.9C9.5,6.2,9.4,6.3,9.3,6.3c-0.1,0-3.6,0-3.8,0C5.3,6.2,5.1,6.1,5.1,5.8
		c0-0.3,0.1-0.5,0.5-0.6C5.7,5.2,9.2,5.2,9.3,5.2 M8.8,12.2c0.1,0,0.2,0,0.2,0.1c0,0,0.1,0.1,0.1,0.1c0.2,0.1,0.1,0.3-0.1,0.3
		c-0.1,0-4.9,0-5,0c-0.2-0.1-0.2-0.2-0.1-0.3C4,12.4,4,12.3,4,12.3c0-0.1,0.1-0.1,0.2-0.1C4.3,12.2,8.7,12.2,8.8,12.2"/>
	<path id="path4" class="st4" d="M0.5,0.5c-0.2,0-0.2,0.1-0.2,0.2c0,0.1,0,10.1,0,10.2c0,0.1,0,0.1,0.1,0.2c0.1,0,12.1,0,12.2,0
		c0.1,0,0.1-0.1,0.2-0.1c0-0.1,0-10.2,0-10.3c0-0.1-0.1-0.1-0.1-0.1C12.6,0.5,0.7,0.5,0.5,0.5 M12,1c0.1,0.1,0.1-0.4,0.1,4.7
		c0,5.2,0,4.7-0.1,4.8l-0.1,0H6.4c-4.7,0-5.5,0-5.6,0c0,0-0.1,0-0.1-0.1l0,0V5.8V1.2l0-0.1C0.8,1.1,0.8,1,0.9,1C1,1,12,1,12,1
		 M12.5,1.2C12.5,1.2,12.5,1.2,12.5,1.2c0.1,0.1,0,9.7,0,9.7c0,0,0,0-0.1,0.1c0,0-11.4,0-11.5,0c-0.1,0-0.1-0.1-0.1-0.2
		c0.1-0.1-0.2-0.1,5.6-0.1c3.7,0,5.4,0,5.5,0c0.2,0,0.3-0.1,0.3-0.2c0-0.1,0-0.1,0-4.6c0-5,0-4.6,0.1-4.7
		C12.5,1.1,12.5,1.1,12.5,1.2 M3.9,2.6C3.5,2.7,3.3,3,3.3,3.4c0,0.2,0,4.4,0,4.6c0,0.4,0.2,0.6,0.4,0.7c0.2,0.1,0.1,0.1,2.9,0.1
		l2.6,0l0.1,0c0.2-0.1,0.3-0.1,0.5-0.4c0.2-0.4,0.2-0.6,0-0.8c-0.3-0.3-0.6-0.3-1,0c-0.3,0.2,0,0.2-2.2,0.2l-1.9,0l-0.1,0
		c0,0-0.1,0-0.1-0.1l0-0.1V5.8c0-2,0-1.9,0.1-2c0,0,0.1-0.1,0.1-0.1c0.1,0,3.7,0,3.8,0c0.1,0,0.1,0.1,0.3,0.2c0.4,0.3,0.7,0.3,1,0
		c0.3-0.4,0-1.1-0.5-1.3C9.1,2.6,4,2.6,3.9,2.6 M9.1,2.8c0.2,0,0.4,0.2,0.5,0.4c0.2,0.3,0.2,0.6,0,0.8C9.3,4.1,9.1,4.1,8.7,3.8
		C8.5,3.6,8.6,3.6,6.5,3.6c-2.1,0-2,0-2.1,0.1c-0.1,0.2-0.1,0.1-0.1,2c0,2,0,1.9,0.2,2c0.1,0.1,0,0.1,2.1,0.1h1.9l0.1,0
		c0,0,0.1-0.1,0.2-0.1C9,7.4,9.3,7.4,9.6,7.6c0.2,0.2,0.2,0.4,0,0.8C9.5,8.6,9.4,8.7,9.1,8.7c-0.2,0-5.3,0-5.4,0
		C3.6,8.6,3.5,8.5,3.4,8.2c0-0.1,0-4.5,0-4.8c0-0.4,0.2-0.6,0.6-0.7C4.1,2.7,9,2.7,9.1,2.8 M5.6,5.2C5.2,5.3,5,5.5,5.1,5.8
		c0,0.3,0.2,0.4,0.5,0.5c0.1,0,3.6,0,3.8,0c0.1,0,0.2-0.1,0.3-0.2c0.3-0.3,0.2-0.8-0.3-0.9C9.2,5.2,5.7,5.2,5.6,5.2 M9.3,5.4
		C9.6,5.5,9.7,5.7,9.5,6C9.4,6.1,9.3,6.2,9.1,6.2c-0.3,0-3.5,0-3.6,0C5.1,6,5.1,5.5,5.5,5.4c0,0,0.1,0,0.1,0
		C5.7,5.3,9.2,5.3,9.3,5.4 M4.2,12.2c-0.1,0-0.1,0-0.2,0.1c0,0-0.1,0.1-0.1,0.1c-0.2,0.1-0.1,0.3,0.1,0.3c0.1,0,4.9,0,5,0
		c0.2-0.1,0.3-0.2,0.1-0.3c0,0-0.1-0.1-0.1-0.1c0-0.1-0.1-0.1-0.2-0.1C8.7,12.2,4.3,12.2,4.2,12.2 M8.7,12.4
		C8.8,12.5,8.8,12.5,8.7,12.4c0,0.1-4.2,0.1-4.4,0.1c-0.1,0-0.1,0-0.1-0.1c0-0.1-0.1-0.1,2.3-0.1L8.7,12.4L8.7,12.4"/>
</g>
</svg>
