<?xml version="1.0" encoding="utf-8"?>
<!-- Generator: Adobe Illustrator 23.0.3, SVG Export Plug-In . SVG Version: 6.00 Build 0)  -->
<svg version="1.1" id="Layer_1" xmlns="http://www.w3.org/2000/svg" xmlns:xlink="http://www.w3.org/1999/xlink" x="0px" y="0px"
	 viewBox="0 0 13 13" style="enable-background:new 0 0 13 13;" xml:space="preserve">
<style type="text/css">
	.st0{display:none;}
	.st1{fill:none;}
	.st2{fill-rule:evenodd;clip-rule:evenodd;fill:#042C34;}
</style>
<g class="st0">
	<title>background</title>
	<rect id="canvas_background" x="-182" y="-799.5" class="st1" width="582" height="402"/>
</g>
<g>
	<title>Layer 1</title>
	<g id="svgg">
		<path id="path3" class="st2" d="M0.1,0.1L0.1,0.1l0,5.8v5.7l0,0c0.1,0.1,0.1,0.1,2,0.1c0.9,0,1.6,0,1.7,0c0,0,0,0.1-0.1,0.1
			c0,0-0.1,0.1-0.1,0.1c-0.1,0.1-0.1,0.1-0.2,0.2c-0.1,0.1-0.2,0.3-0.2,0.6V13h0c0,0,0,0,0,0c0,0,0,0,0,0c0,0,0.2,0,3.3,0
			c3.1,0,3.3,0,3.3,0c0,0,0,0,0,0c0,0,0,0,0,0h0l0-0.2c0-0.3,0-0.4-0.1-0.5c-0.1-0.1-0.1-0.1-0.1-0.1c0,0-0.1-0.1-0.1-0.1
			c-0.1-0.1-0.1-0.1-0.2-0.2c0,0-0.1,0-0.1-0.1c0-0.1-0.1-0.1,1.7-0.1c1.9,0,1.8,0,2-0.1l0,0V5.8c0-5.6,0-5.8,0-5.8c0,0-0.5,0-6.4,0
			L0.1,0.1L0.1,0.1 M12.6,0.6c0.1,0,0.1,0.1,0.1,0.1c0,0.1,0,10.2,0,10.3c0,0.1-0.1,0.1-0.2,0.1c-0.1,0-12.1,0-12.2,0
			c-0.1,0-0.1-0.1-0.1-0.2c0-0.1,0-10.1,0-10.2c0-0.1,0.1-0.2,0.2-0.2C0.7,0.5,12.6,0.5,12.6,0.6 M0.9,1c-0.1,0-0.1,0-0.2,0.1l0,0.1
			v4.6v4.6l0,0c0,0,0,0.1,0.1,0.1c0,0,0.9,0,5.6,0h5.5l0.1,0c0.2-0.1,0.1,0.4,0.1-4.8c0-5.1,0-4.6-0.1-4.6C12,1,1,1,0.9,1 M9.2,2.7
			c0.4,0.1,0.7,0.7,0.6,1.1C9.6,4.2,9.1,4.3,8.7,4C8.5,3.8,8.5,3.8,8.4,3.8c-0.1,0-3.7,0-3.8,0c-0.1,0-0.1,0-0.1,0.1
			c-0.1,0.1-0.1,0-0.1,2v1.8l0,0.1c0,0,0,0.1,0.1,0.1l0.1,0l1.9,0c2.2,0,2,0,2.2-0.2c0.4-0.3,0.7-0.3,1,0c0.2,0.2,0.2,0.5,0,0.8
			C9.5,8.7,9.5,8.7,9.2,8.8l-0.1,0l-2.6,0c-2.8,0-2.7,0-2.9-0.1C3.5,8.7,3.3,8.4,3.3,8.1c0-0.2,0-4.5,0-4.6c0-0.4,0.3-0.7,0.6-0.8
			C4,2.6,9.1,2.6,9.2,2.7 M9.3,5.2c0.5,0.1,0.6,0.6,0.3,0.9C9.5,6.2,9.4,6.3,9.3,6.3c-0.1,0-3.6,0-3.8,0C5.3,6.2,5.1,6.1,5.1,5.8
			c0-0.3,0.1-0.5,0.5-0.6C5.7,5.2,9.2,5.2,9.3,5.2 M8.8,12.2c0.1,0,0.2,0,0.2,0.1c0,0,0.1,0.1,0.1,0.1c0.2,0.1,0.1,0.3-0.1,0.3
			c-0.1,0-4.9,0-5,0c-0.2-0.1-0.2-0.2-0.1-0.3C4,12.3,4,12.3,4.1,12.3c0-0.1,0.1-0.1,0.2-0.1C4.3,12.1,8.7,12.1,8.8,12.2"/>
	</g>
</g>
</svg>
